#!OML:ASF E:\Steps\Project 1\Capture day 1\Session 2\Subject.ASF
:FULLY-SPECIFIED
:DEGREES
492
root 12.1013 18.0227 8.18725 -154.707 0.999054 174.931
lowerback -31.3544 -3.89035 -12.5046
upperback -0.585316 -1.15268 -1.63677
thorax 15.7859 -1.70478 4.31272
lowerneck -2.87896 -2.22873 -0.651446
upperneck 9.48119 -3.17722 6.46794
head 3.74141 -1.17454 2.14829
rclavicle -1.21259e-014 -2.78299e-014
rhumerus -34.6746 -19.9193 -77.4154
rradius 25.145
rwrist 3.72831
rhand -4.89935 -53.204
rfingers 7.12502
rthumb 20.8901 277.901
lclavicle -1.21259e-014 -2.78299e-014
lhumerus -27.9906 2.84631 80.2061
lradius 18.4449
lwrist -4.72916
lhand -21.2655 -11.5531
lfingers 7.12502
lthumb 5.11799 18.3651
rfemur -23.0085 6.75439 15.649
rtibia 5.62201
rfoot -17.8422 -3.08858
rtoes -17.7687
lfemur -23.1085 -10.2371 -25.1784
ltibia 6.96704
lfoot -6.41169 -6.66643
ltoes -10.2258
493
root 12.1017 18.0229 8.18591 -154.589 1.11105 174.902
lowerback -31.4962 -3.90061 -12.5647
upperback -0.636074 -1.14477 -1.61245
thorax 15.7851 -1.71023 4.36834
lowerneck -2.96792 -2.33018 -0.616487
upperneck 9.41727 -3.32055 6.46406
head 3.74141 -1.24682 2.13326
rclavicle -1.39149e-015 -2.46493e-014
rhumerus -34.7084 -20.1151 -77.2505
rradius 25.0391
rwrist 4.0372
rhand -4.63901 -53.1532
rfingers 7.12502
rthumb 21.1402 277.979
lclavicle -1.39149e-015 -2.46493e-014
lhumerus -28.0935 2.82812 80.2844
lradius 18.5299
lwrist -4.65993
lhand -21.307 -11.3803
lfingers 7.12502
lthumb 5.07792 18.5388
rfemur -23.1783 6.78252 15.57
rtibia 5.64028
rfoot -17.8265 -3.08025
rtoes -17.8584
lfemur -23.2334 -10.1976 -25.2128
ltibia 6.95733
lfoot -6.36141 -6.62321
ltoes -9.51216
494
root 12.102 18.0233 8.18442 -154.542 1.16607 174.853
lowerback -31.6114 -4.95336 -12.0064
upperback -0.685962 -0.87382 -1.56749
thorax 15.8671 -0.805568 4.43477
lowerneck -3.02035 -2.37271 -0.666971
upperneck 9.20731 -3.38096 6.49277
head 3.68253 -1.28719 2.14657
rclavicle -3.97569e-015 6.52014e-014
rhumerus -34.7485 -20.1893 -77.1551
rradius 25.0638
rwrist 4.08183
rhand -4.59263 -53.3392
rfingers 7.12502
rthumb 21.1848 277.798
lclavicle -3.97569e-015 6.52014e-014
lhumerus -28.154 2.93782 80.3457
lradius 18.5764
lwrist -4.67213
lhand -21.3065 -11.5539
lfingers 7.12502
lthumb 5.07844 18.3653
rfemur -23.2398 6.77972 15.4945
rtibia 5.68021
rfoot -17.8254 -3.08787
rtoes -18.3848
lfemur -23.2815 -10.1712 -25.2853
ltibia 6.96605
lfoot -6.33508 -6.59145
ltoes -9.84211
495
root 12.1014 18.0236 8.18447 -154.517 1.21156 174.795
lowerback -31.735 -4.97593 -12.0491
upperback -0.647728 -0.867166 -1.55811
thorax 15.9663 -0.812573 4.4668
lowerneck -2.99729 -2.3596 -0.741049
upperneck 9.01337 -3.36209 6.54427
head 3.61274 -1.28742 2.17594
rclavicle 0 -3.49861e-014
rhumerus -34.6803 -20.2956 -77.1355
rradius 25.0421
rwrist 4.0705
rhand -4.56295 -53.3455
rfingers 7.12502
rthumb 21.2133 277.795
lclavicle 0 -3.49861e-014
lhumerus -28.1285 3.04419 80.372
lradius 18.6034
lwrist -4.72612
lhand -21.2457 -11.6651
lfingers 7.12502
lthumb 5.13708 18.2527
rfemur -23.2821 6.7577 15.4127
rtibia 5.71158
rfoot -17.8611 -3.00122
rtoes -18.293
lfemur -23.3148 -10.1702 -25.3659
ltibia 6.98129
lfoot -6.31361 -6.5993
ltoes -10.035
496
root 12.1008 18.023 8.18488 -154.464 1.28755 174.745
lowerback -31.8774 -4.97361 -12.0846
upperback -0.622071 -0.820663 -1.57002
thorax 16.052 -0.798183 4.48871
lowerneck -3.06141 -2.50342 -0.644168
upperneck 8.85398 -3.56177 6.51618
head 3.57464 -1.39049 2.13797
rclavicle 1.39149e-015 -1.51076e-014
rhumerus -34.6599 -20.3569 -77.1454
rradius 25.0502
rwrist 3.98677
rhand -4.51513 -53.082
rfingers 7.12502
rthumb 21.2592 278.064
lclavicle 1.39149e-015 -1.51076e-014
lhumerus -28.0383 3.12287 80.3542
lradius 18.5548
lwrist -4.91521
lhand -21.1546 -11.9616
lfingers 7.12502
lthumb 5.22509 17.954
rfemur -23.3862 6.72191 15.329
rtibia 5.7587
rfoot -17.8972 -2.85763
rtoes -17.9706
lfemur -23.3733 -10.1737 -25.43
ltibia 6.97961
lfoot -6.33593 -6.58448
ltoes -9.59324
497
root 12.1015 18.0231 8.18451 -154.457 1.30343 174.694
lowerback -31.9152 -4.99825 -12.1385
upperback -0.601378 -0.822081 -1.58118
thorax 16.0931 -0.804577 4.50253
lowerneck -3.23605 -2.59805 -0.568905
upperneck 8.86954 -3.70139 6.52782
head 3.61821 -1.45389 2.12164
rclavicle 2.70347e-014 -5.725e-014
rhumerus -34.6496 -20.2147 -77.2561
rradius 25.0868
rwrist 3.71714
rhand -4.55883 -53.0811
rfingers 7.12502
rthumb 21.2172 278.06
lclavicle 2.70347e-014 -5.725e-014
lhumerus -27.9609 3.10128 80.3426
lradius 18.5068
lwrist -4.98931
lhand -21.1507 -12.4592
lfingers 7.12502
lthumb 5.22887 17.4563
rfemur -23.4137 6.66455 15.28
rtibia 5.79687
rfoot -17.921 -2.81386
rtoes -18.2977
lfemur -23.3802 -10.1949 -25.4836
ltibia 6.98981
lfoot -6.40194 -6.5809
ltoes -9.67412
498
root 12.1026 18.0229 8.18379 -154.508 1.28013 174.681
lowerback -32.0175 -5.03915 -12.1822
upperback -0.472941 -0.856721 -1.54967
thorax 16.2982 -0.847099 4.54065
lowerneck -3.35533 -2.57203 -0.604754
upperneck 8.78085 -3.67111 6.53915
head 3.61031 -1.44356 2.13159
rclavicle -2.78299e-015 1.59028e-015
rhumerus -34.3755 -20.0118 -77.4298
rradius 24.9871
rwrist 3.47189
rhand -4.63286 -53.4797
rfingers 7.12502
rthumb 21.1461 277.653
lclavicle -2.78299e-015 1.59028e-015
lhumerus -27.7647 2.99584 80.4361
lradius 18.4834
lwrist -4.79955
lhand -21.1921 -12.4678
lfingers 7.12502
lthumb 5.18883 17.4487
rfemur -23.3279 6.67816 15.2823
rtibia 5.7445
rfoot -17.8933 -2.88135
rtoes -18.5011
lfemur -23.3209 -10.1905 -25.5017
ltibia 6.99694
lfoot -6.41791 -6.59939
ltoes -10.2493
499
root 12.1028 18.0233 8.18244 -154.515 1.28387 174.701
lowerback -31.9444 -5.04856 -12.1397
upperback -0.54861 -0.895416 -1.54344
thorax 16.1815 -0.848536 4.51141
lowerneck -3.34909 -2.54405 -0.584268
upperneck 8.89528 -3.63186 6.48315
head 3.6451 -1.42138 2.11185
rclavicle 9.83984e-015 -1.43125e-014
rhumerus -34.4268 -20.0616 -77.405
rradius 24.8221
rwrist 3.56814
rhand -4.67141 -53.3885
rfingers 7.12502
rthumb 21.1091 277.741
lclavicle 9.83984e-015 -1.43125e-014
lhumerus -27.8947 3.00104 80.4108
lradius 18.4898
lwrist -4.83211
lhand -21.1336 -12.3509
lfingers 7.12502
lthumb 5.24533 17.5642
rfemur -23.2801 6.72624 15.297
rtibia 5.65679
rfoot -17.8059 -2.95929
rtoes -18.3729
lfemur -23.3061 -10.1304 -25.4949
ltibia 6.99696
lfoot -6.41678 -6.61319
ltoes -10.7448
500
root 12.1028 18.0239 8.18152 -154.488 1.29431 174.679
lowerback -31.9942 -5.06738 -12.1633
upperback -0.556366 -0.897557 -1.54901
thorax 16.1942 -0.848946 4.5156
lowerneck -3.42189 -2.50891 -0.47386
upperneck 8.94259 -3.58796 6.38669
head 3.66785 -1.39773 2.06102
rclavicle -1.67973e-014 -3.18055e-015
rhumerus -34.4044 -20.4363 -77.2886
rradius 24.6442
rwrist 3.79145
rhand -4.70126 -52.7855
rfingers 7.12502
rthumb 21.0804 278.34
lclavicle -1.67973e-014 -3.18055e-015
lhumerus -27.909 3.10243 80.3598
lradius 18.4697
lwrist -5.01027
lhand -21.024 -12.3769
lfingers 7.12502
lthumb 5.35117 17.5355
rfemur -23.3101 6.73427 15.263
rtibia 5.66169
rfoot -17.7392 -3.02109
rtoes -18.2451
lfemur -23.3297 -10.0994 -25.5283
ltibia 6.9928
lfoot -6.42458 -6.65849
ltoes -10.9014
